<svg xmlns="http://www.w3.org/2000/svg" width="59" height="52" viewBox="0 0 59 52" fill="none"><path d="M35.75 9.75C35.75 7.51562 34.4297 5.38281 32.5 4.16406C30.4688 3.04688 27.9297 3.04688 26 4.16406C23.9688 5.38281 22.75 7.51562 22.75 9.75C22.75 12.0859 23.9688 14.2188 26 15.4375C27.9297 16.5547 30.4688 16.5547 32.5 15.4375C34.4297 14.2188 35.75 12.0859 35.75 9.75ZM32.0938 19.0938C31.1797 19.3984 30.2656 19.5 29.25 19.5C28.2344 19.5 27.2188 19.3984 26.3047 19.0938C28.1328 20.9219 29.25 23.3594 29.25 26C29.25 28.7422 28.1328 31.1797 26.3047 33.0078C27.2188 32.7031 28.2344 32.5 29.25 32.5C30.2656 32.5 31.1797 32.7031 32.0938 33.0078C30.2656 31.1797 29.25 28.7422 29.25 26C29.25 23.3594 30.2656 20.9219 32.0938 19.0938ZM39 35.75C37.9844 35.75 36.9688 35.6484 36.0547 35.3438C37.8828 37.1719 39 39.6094 39 42.25C39 47.6328 34.6328 52 29.25 52C23.8672 52 19.5 47.6328 19.5 42.25C19.5 39.6094 20.5156 37.1719 22.3438 35.3438C21.4297 35.6484 20.5156 35.75 19.5 35.75C18.4844 35.75 17.4688 35.6484 16.5547 35.3438C18.3828 37.1719 19.5 39.6094 19.5 42.25C19.5 47.6328 15.1328 52 9.75 52C4.36719 52 0 47.6328 0 42.25C0 36.8672 4.36719 32.5 9.75 32.5C10.6641 32.5 11.6797 32.7031 12.5938 33.0078C10.7656 31.1797 9.75 28.7422 9.75 26C9.75 20.6172 14.1172 16.25 19.5 16.25C20.4141 16.25 21.4297 16.4531 22.3438 16.7578C20.5156 14.9297 19.5 12.4922 19.5 9.75C19.5 4.36719 23.8672 0 29.25 0C34.6328 0 39 4.36719 39 9.75C39 12.4922 37.8828 14.9297 36.0547 16.7578C36.9688 16.4531 37.9844 16.25 39 16.25C44.3828 16.25 48.75 20.6172 48.75 26C48.75 28.7422 47.6328 31.1797 45.8047 33.0078C46.7188 32.7031 47.7344 32.5 48.75 32.5C54.1328 32.5 58.5 36.8672 58.5 42.25C58.5 47.6328 54.1328 52 48.75 52C43.3672 52 39 47.6328 39 42.25C39 39.6094 40.0156 37.1719 41.8438 35.3438C40.9297 35.6484 40.0156 35.75 39 35.75ZM26 26C26 23.7656 24.6797 21.6328 22.75 20.4141C20.7188 19.2969 18.1797 19.2969 16.25 20.4141C14.2188 21.6328 13 23.7656 13 26C13 28.3359 14.2188 30.4688 16.25 31.6875C18.1797 32.8047 20.7188 32.8047 22.75 31.6875C24.6797 30.4688 26 28.3359 26 26ZM16.25 42.25C16.25 40.0156 14.9297 37.8828 13 36.6641C10.9688 35.5469 8.42969 35.5469 6.5 36.6641C4.46875 37.8828 3.25 40.0156 3.25 42.25C3.25 44.5859 4.46875 46.7188 6.5 47.9375C8.42969 49.0547 10.9688 49.0547 13 47.9375C14.9297 46.7188 16.25 44.5859 16.25 42.25ZM39 32.5C41.2344 32.5 43.3672 31.2813 44.5859 29.25C45.7031 27.3203 45.7031 24.7813 44.5859 22.75C43.3672 20.8203 41.2344 19.5 39 19.5C36.6641 19.5 34.5313 20.8203 33.3125 22.75C32.1953 24.7813 32.1953 27.3203 33.3125 29.25C34.5313 31.2813 36.6641 32.5 39 32.5ZM29.25 48.75C31.4844 48.75 33.6172 47.5313 34.8359 45.5C35.9531 43.5703 35.9531 41.0313 34.8359 39C33.6172 37.0703 31.4844 35.75 29.25 35.75C26.9141 35.75 24.7813 37.0703 23.5625 39C22.4453 41.0313 22.4453 43.5703 23.5625 45.5C24.7813 47.5313 26.9141 48.75 29.25 48.75ZM55.25 42.25C55.25 40.0156 53.9297 37.8828 52 36.6641C49.9688 35.5469 47.4297 35.5469 45.5 36.6641C43.4688 37.8828 42.25 40.0156 42.25 42.25C42.25 44.5859 43.4688 46.7188 45.5 47.9375C47.4297 49.0547 49.9688 49.0547 52 47.9375C53.9297 46.7188 55.25 44.5859 55.25 42.25Z" fill="url(#paint0_linear_440_396)"/><defs><linearGradient id="paint0_linear_440_396" x1="0" y1="26" x2="58.5" y2="26" gradientUnits="userSpaceOnUse"><stop stop-color="#ED1F24"/><stop offset="0.5" stop-color="#702B8A"/><stop offset="1" stop-color="#3853A4"/></linearGradient></defs></svg>