<svg xmlns="http://www.w3.org/2000/svg" width="52" height="52" viewBox="0 0 52 52" fill="none"><path d="M48.75 3.25H26V48.75H48.75V3.25ZM26 0H48.75H52V3.25V48.75V52H48.75H26H22.75V48.75V3.25V0H26ZM19.5 13V16.25H17.875H3.25V48.75H17.875H19.5V52H17.875H1.625H0V50.375V14.625V13H1.625H17.875H19.5ZM8.125 32.5H14.625H16.25V34.125V40.625V42.25H14.625H8.125H6.5V40.625V34.125V32.5H8.125ZM9.75 39H13V35.75H9.75V39ZM32.5 42.25V40.625V34.125V32.5H34.125H40.625H42.25V34.125V40.625V42.25H40.625H34.125H32.5ZM35.75 39H39V35.75H35.75V39ZM8.125 19.5H14.625H16.25V21.125V27.625V29.25H14.625H8.125H6.5V27.625V21.125V19.5H8.125ZM9.75 26H13V22.75H9.75V26ZM32.5 6.5H34.125H40.625H42.25V8.125V14.625V16.25H40.625H34.125H32.5V14.625V8.125V6.5ZM35.75 9.75V13H39V9.75H35.75ZM34.125 29.25H32.5V27.625V21.125V19.5H34.125H40.625H42.25V21.125V27.625V29.25H40.625H34.125ZM35.75 22.75V26H39V22.75H35.75Z" fill="url(#paint0_linear_440_400)"/><defs><linearGradient id="paint0_linear_440_400" x1="0" y1="26" x2="52" y2="26" gradientUnits="userSpaceOnUse"><stop stop-color="#ED1F24"/><stop offset="0.5" stop-color="#702B8A"/><stop offset="1" stop-color="#3853A4"/></linearGradient></defs></svg>