<svg xmlns="http://www.w3.org/2000/svg" width="59" height="46" viewBox="0 0 59 46" fill="none"><path d="M3.25 21.125H19.5V11.375C19.5 6.90625 15.8438 3.25 11.375 3.25C6.80469 3.25 3.25 6.90625 3.25 11.375V21.125ZM0 22.75V11.375C0 5.17969 5.07813 0 11.375 0C17.5703 0 22.75 5.17969 22.75 11.375V13.9141C23.0547 10.5625 24.6797 7.51562 27.5234 5.48438C32.7031 1.72656 39.7109 3.04688 43.3672 8.32813L56.3672 27.3203C60.0234 32.6016 58.7031 39.8125 53.625 43.4688C48.4453 47.125 41.3359 45.9063 37.7813 40.625L24.6797 21.6328C23.5625 19.9062 22.8516 17.9766 22.75 16.0469V22.75V34.125C22.75 40.4219 17.5703 45.5 11.375 45.5C5.07813 45.5 0 40.4219 0 34.125V22.75ZM19.5 24.375H3.25V34.125C3.25 38.6953 6.80469 42.25 11.375 42.25C15.8438 42.25 19.5 38.6953 19.5 34.125V24.375ZM40.4219 38.7969C43.0625 42.5547 48.0391 43.4688 51.6953 40.8281C55.3516 38.1875 56.3672 33.0078 53.7266 29.1484L48.3438 21.3281L48.1406 21.5312L34.9375 30.7734L40.4219 38.7969ZM46.3125 18.8906L46.5156 18.6875L40.625 10.1563C38.0859 6.39844 33.0078 5.48438 29.3516 8.125C25.6953 10.7656 24.7813 15.9453 27.4219 19.8047L33.1094 28.1328L46.3125 18.8906Z" fill="url(#paint0_linear_440_394)"/><defs><linearGradient id="paint0_linear_440_394" x1="0" y1="22.7852" x2="58.4468" y2="22.7852" gradientUnits="userSpaceOnUse"><stop stop-color="#ED1F24"/><stop offset="0.5" stop-color="#702B8A"/><stop offset="1" stop-color="#3853A4"/></linearGradient></defs></svg>