<svg xmlns="http://www.w3.org/2000/svg" width="46" height="52" viewBox="0 0 46 52" fill="none"><path d="M29.25 22.75V21.8359V3.25H16.25V21.8359V22.75L15.7422 23.5625L10.1563 32.5H35.2422L29.6563 23.5625L29.25 22.75ZM13 0H16.25H29.25H32.5H34.125H35.75V3.25H34.125H32.5V21.8359L45.5 42.9609V48.75V52H42.25H3.25H0V48.75V42.9609L13 21.8359V3.25H11.375H9.75V0H11.375H13ZM3.25 43.875V48.75H42.25V43.875L37.1719 35.75H8.22656L3.25 43.875Z" fill="url(#paint0_linear_440_399)"/><defs><linearGradient id="paint0_linear_440_399" x1="0" y1="26" x2="45.5" y2="26" gradientUnits="userSpaceOnUse"><stop stop-color="#ED1F24"/><stop offset="0.5" stop-color="#702B8A"/><stop offset="1" stop-color="#3853A4"/></linearGradient></defs></svg>