<svg xmlns="http://www.w3.org/2000/svg" width="58" height="52" viewBox="0 0 58 52" fill="none"><path d="M51.1875 13.8125L49.5625 15.4375L51.7969 17.7734L54.5391 20.5156L54.8438 20.8203L55.6563 20.0078L57.9922 22.3438L46.6172 33.7188L44.2813 31.3828L45.9063 29.7578L45.6016 29.4531L42.8594 26.7109L40.625 24.375L39 26L36.6641 23.7656L27.625 14.625V9.75L21.2266 6.60156L17.875 4.875L21.125 2.94531L22.8516 1.92969C24.8828 0.710937 27.2188 0 29.5547 0H31.9922C35.3438 0 38.6953 1.42188 41.1328 3.85938L48.8516 11.5781L51.1875 13.8125ZM46.5156 13.8125L38.7969 6.19531C36.9688 4.36719 34.5313 3.25 31.9922 3.25H29.5547C27.8281 3.25 26.1016 3.75781 24.5781 4.67188L29.0469 6.90625L30.875 7.82031V9.75V13.3047L39 21.4297L40.625 19.8047L42.8594 22.1406L47.9375 27.1172L52.2031 22.75L47.2266 17.7734L44.8906 15.4375L46.5156 13.8125ZM2.4375 40.1172L26.8125 18.4844L29.0469 20.7188L4.67188 42.4531L9.54688 47.3281L31.2813 22.9531L33.5156 25.1875L11.8828 49.5625L9.75 52L7.41406 49.7656L2.23438 44.5859L0 42.25L2.4375 40.1172Z" fill="url(#paint0_linear_440_402)"/><defs><linearGradient id="paint0_linear_440_402" x1="0" y1="26" x2="57.9922" y2="26" gradientUnits="userSpaceOnUse"><stop stop-color="#ED1F24"/><stop offset="0.5" stop-color="#702B8A"/><stop offset="1" stop-color="#3853A4"/></linearGradient></defs></svg>