<svg xmlns="http://www.w3.org/2000/svg" width="49" height="52" viewBox="0 0 49 52" fill="none"><path d="M21.125 0H22.75H30.875H32.5V1.625V3.25H39H40.625V4.875V9.75H47.125H48.75V11.375V34.125C48.75 44.0781 40.7266 52 30.875 52H29.9609C23.2578 52 16.8594 49.3594 12.1875 44.6875L1.625 34.125L0.40625 32.9063L0 32.5V31.7891V28.4375V27.7266L0.40625 27.3203L4.46875 23.2578L5.6875 22.0391L6.80469 23.2578L9.64844 26.1016L13 29.3516V4.875V3.25H14.625H21.125V1.625V0ZM37.375 13V11.375V6.5H32.5V8.125V24.375V26H29.25V24.375V8.125V6.5V4.875V3.25H24.375V4.875V24.375V26H21.125V24.375V6.5H16.25V30.875V31.5859L15.7422 32.0938L14.5234 33.2109L13.4063 34.4297L12.2891 33.2109L7.41406 28.3359L5.6875 26.6094L3.25 29.0469V31.0781L3.96094 31.7891L14.4219 42.3516C18.5859 46.5156 24.1719 48.75 29.9609 48.75H30.875C38.8984 48.75 45.5 42.25 45.5 34.125V13H40.625V24.375V26H37.375V24.375V13ZM27.0156 33.4141L26.4063 32.9063C26 32.5 25.3906 32.2969 24.8828 32.2969H24.4766C23.3594 32.2969 22.4453 33.2109 22.4453 34.3281C22.4453 34.8359 22.75 35.3438 23.1563 35.75L29.25 41.4375L35.3438 35.75C35.75 35.3438 35.9531 34.8359 35.9531 34.3281C35.9531 33.2109 35.0391 32.2969 33.9219 32.2969H33.6172C33.0078 32.2969 32.3984 32.5 31.9922 32.9063L31.3828 33.4141L29.25 35.4453L27.0156 33.4141ZM19.1953 34.3281C19.1953 31.3828 21.5313 29.0469 24.4766 29.0469H24.8828C26.3047 29.0469 27.625 29.5547 28.6406 30.5703L29.25 31.0781L29.7578 30.5703C30.7734 29.5547 32.1953 29.0469 33.6172 29.0469H33.9219C36.8672 29.0469 39.2031 31.3828 39.2031 34.3281C39.2031 35.75 38.5938 37.1719 37.4766 38.0859L30.3672 44.8906L29.25 45.9063L28.1328 44.8906L20.9219 38.0859C19.8047 37.1719 19.1953 35.75 19.1953 34.3281Z" fill="url(#paint0_linear_440_397)"/><defs><linearGradient id="paint0_linear_440_397" x1="0" y1="26" x2="48.75" y2="26" gradientUnits="userSpaceOnUse"><stop stop-color="#ED1F24"/><stop offset="0.5" stop-color="#702B8A"/><stop offset="1" stop-color="#3853A4"/></linearGradient></defs></svg>