<svg xmlns="http://www.w3.org/2000/svg" version="1.2" viewBox="0 0 24 24" width="24" height="24"><style>.s0 { fill: none;stroke: #000000;stroke-linecap: round;stroke-linejoin: round;stroke-width: 2 } </style><path class="s0" d="m15.48 12.89l1.51 8.53q0.03 0.15-0.04 0.29-0.07 0.14-0.2 0.22-0.14 0.08-0.29 0.07-0.16-0.02-0.28-0.11l-3.58-2.69q-0.13-0.1-0.28-0.15-0.15-0.05-0.32-0.05-0.16 0-0.31 0.05-0.16 0.05-0.28 0.15l-3.59 2.68q-0.12 0.1-0.28 0.12-0.15 0.01-0.29-0.07-0.13-0.08-0.2-0.22-0.07-0.14-0.04-0.29l1.51-8.53"/><path fill-rule="evenodd" class="s0" d="m12 14c-3.32 0-6-2.68-6-6 0-3.32 2.68-6 6-6 3.32 0 6 2.68 6 6 0 3.32-2.68 6-6 6z"/></svg>