<svg xmlns="http://www.w3.org/2000/svg" version="1.2" viewBox="0 0 24 24" width="24" height="24"><style>.s0 { fill: none;stroke: #000000;stroke-linecap: round;stroke-linejoin: round;stroke-width: 2 } </style><path class="s0" d="m16 21v-2q0-0.8-0.3-1.53-0.31-0.73-0.87-1.3-0.57-0.56-1.3-0.87-0.73-0.3-1.53-0.3h-6q-0.8 0-1.53 0.3-0.73 0.31-1.3 0.87-0.56 0.57-0.87 1.3-0.3 0.73-0.3 1.53v2"/><path class="s0" d="m16 3.13c0.86 0.22 1.62 0.72 2.16 1.42 0.54 0.7 0.84 1.56 0.84 2.45 0 0.89-0.3 1.75-0.84 2.45-0.54 0.7-1.3 1.2-2.16 1.42"/><path class="s0" d="m22 21v-2q0-0.66-0.22-1.29-0.21-0.63-0.62-1.16-0.41-0.52-0.96-0.89-0.56-0.36-1.2-0.53"/><path fill-rule="evenodd" class="s0" d="m9 11c-2.21 0-4-1.79-4-4 0-2.21 1.79-4 4-4 2.21 0 4 1.79 4 4 0 2.21-1.79 4-4 4z"/></svg>