<svg xmlns="http://www.w3.org/2000/svg" version="1.2" viewBox="0 0 24 24" width="24" height="24"><style>.s0 { fill: none;stroke: #000000;stroke-linecap: round;stroke-linejoin: round;stroke-width: 2 } </style><path class="s0" d="m12.22 2h-0.44q-0.4 0-0.77 0.15-0.36 0.16-0.64 0.44-0.28 0.28-0.44 0.64-0.15 0.37-0.15 0.77v0.18q0 0.26-0.07 0.52-0.07 0.25-0.2 0.48-0.13 0.23-0.32 0.41-0.18 0.19-0.41 0.32l-0.43 0.25q-0.23 0.13-0.48 0.2-0.26 0.07-0.52 0.07-0.26 0-0.52-0.07-0.25-0.07-0.48-0.2l-0.15-0.08q-0.34-0.2-0.74-0.25-0.39-0.05-0.78 0.05-0.38 0.1-0.7 0.34-0.31 0.25-0.51 0.59l-0.22 0.38q-0.2 0.34-0.25 0.74-0.05 0.39 0.05 0.78 0.1 0.38 0.34 0.7 0.25 0.31 0.59 0.51l0.15 0.1q0.23 0.13 0.41 0.32 0.19 0.18 0.32 0.41 0.13 0.22 0.2 0.48 0.07 0.25 0.07 0.51v0.51q0 0.26-0.07 0.52-0.06 0.26-0.2 0.48-0.13 0.23-0.31 0.42-0.19 0.19-0.42 0.32l-0.15 0.09q-0.34 0.2-0.59 0.51-0.24 0.32-0.34 0.7-0.1 0.39-0.05 0.78 0.05 0.4 0.25 0.74l0.22 0.38q0.2 0.34 0.51 0.59 0.32 0.24 0.7 0.34 0.39 0.1 0.78 0.05 0.4-0.05 0.74-0.25l0.15-0.08q0.23-0.13 0.48-0.2 0.26-0.07 0.52-0.07 0.26 0 0.52 0.07 0.25 0.07 0.48 0.2l0.43 0.25q0.23 0.13 0.41 0.32 0.19 0.18 0.32 0.41 0.13 0.23 0.2 0.48 0.07 0.26 0.07 0.52v0.18q0 0.4 0.15 0.77 0.16 0.36 0.44 0.64 0.28 0.28 0.64 0.44 0.37 0.15 0.77 0.15h0.44q0.4 0 0.77-0.15 0.36-0.16 0.64-0.44 0.28-0.28 0.44-0.64 0.15-0.37 0.15-0.77v-0.18q0-0.26 0.07-0.52 0.07-0.25 0.2-0.48 0.13-0.23 0.32-0.41 0.18-0.19 0.41-0.32l0.43-0.25q0.23-0.13 0.48-0.2 0.26-0.07 0.52-0.07 0.26 0 0.52 0.07 0.25 0.07 0.48 0.2l0.15 0.08q0.34 0.2 0.74 0.25 0.39 0.05 0.78-0.05 0.38-0.1 0.7-0.34 0.31-0.25 0.51-0.59l0.22-0.39q0.2-0.34 0.25-0.74 0.05-0.39-0.05-0.78-0.1-0.38-0.34-0.7-0.25-0.31-0.59-0.51l-0.15-0.08q-0.23-0.13-0.42-0.32-0.18-0.19-0.31-0.42-0.14-0.22-0.2-0.48-0.07-0.26-0.07-0.52v-0.5q0-0.26 0.07-0.52 0.06-0.26 0.2-0.48 0.13-0.23 0.31-0.42 0.19-0.19 0.42-0.32l0.15-0.09q0.34-0.2 0.59-0.51 0.24-0.32 0.34-0.7 0.1-0.39 0.05-0.78-0.05-0.4-0.25-0.74l-0.22-0.38q-0.2-0.34-0.51-0.59-0.32-0.24-0.7-0.34-0.39-0.1-0.78-0.05-0.4 0.05-0.74 0.25l-0.15 0.08q-0.23 0.13-0.48 0.2-0.26 0.07-0.52 0.07-0.26 0-0.52-0.07-0.25-0.07-0.48-0.2l-0.43-0.25q-0.23-0.13-0.41-0.32-0.19-0.18-0.32-0.41-0.13-0.23-0.2-0.48-0.07-0.26-0.07-0.52v-0.18q0-0.4-0.15-0.77-0.16-0.36-0.44-0.64-0.28-0.28-0.64-0.44-0.37-0.15-0.77-0.15z"/><path fill-rule="evenodd" class="s0" d="m12 15c-1.66 0-3-1.34-3-3 0-1.66 1.34-3 3-3 1.66 0 3 1.34 3 3 0 1.66-1.34 3-3 3z"/></svg>