<svg xmlns="http://www.w3.org/2000/svg" version="1.2" viewBox="0 0 24 24" width="24" height="24"><style>.s0 { fill: none;stroke: #000000;stroke-linecap: round;stroke-linejoin: round;stroke-width: 2 } </style><path class="s0" d="m16 20v-16q0-0.4-0.15-0.77-0.16-0.36-0.44-0.64-0.28-0.28-0.64-0.44-0.37-0.15-0.77-0.15h-4q-0.4 0-0.77 0.15-0.36 0.16-0.64 0.44-0.28 0.28-0.44 0.64-0.15 0.37-0.15 0.77v16"/><path fill-rule="evenodd" class="s0" d="m4 6h16c1.1 0 2 0.9 2 2v10c0 1.1-0.9 2-2 2h-16c-1.1 0-2-0.9-2-2v-10c0-1.1 0.9-2 2-2z"/></svg>