<svg xmlns="http://www.w3.org/2000/svg" version="1.2" viewBox="0 0 24 24" width="24" height="24"><style>.s0 { fill: none;stroke: #000000;stroke-linecap: round;stroke-linejoin: round;stroke-width: 2 } </style><path fill-rule="evenodd" class="s0" d="m12 22c-5.53 0-10-4.47-10-10 0-5.53 4.47-10 10-10 5.53 0 10 4.47 10 10 0 5.53-4.47 10-10 10z"/><path class="s0" d="m12 2c-1.27 1.34-2.28 2.9-2.96 4.61-0.69 1.72-1.04 3.55-1.04 5.39 0 1.84 0.35 3.67 1.04 5.39 0.68 1.71 1.69 3.27 2.96 4.61 1.27-1.34 2.28-2.9 2.96-4.61 0.69-1.72 1.04-3.55 1.04-5.39 0-1.84-0.35-3.67-1.04-5.39-0.68-1.71-1.69-3.27-2.96-4.61z"/><path class="s0" d="m2 12h20"/></svg>