<svg xmlns="http://www.w3.org/2000/svg" version="1.2" viewBox="0 0 24 24" width="24" height="24"><style>.s0 { fill: none;stroke: #000000;stroke-linecap: round;stroke-linejoin: round;stroke-width: 2 } </style><path class="s0" d="m6 9h-1.5c-0.66 0-1.3-0.26-1.77-0.73-0.47-0.47-0.73-1.11-0.73-1.77 0-0.66 0.26-1.3 0.73-1.77 0.47-0.47 1.11-0.73 1.77-0.73h1.5"/><path class="s0" d="m18 9h1.5c0.66 0 1.3-0.26 1.77-0.73 0.47-0.47 0.73-1.11 0.73-1.77 0-0.66-0.26-1.3-0.73-1.77-0.47-0.47-1.11-0.73-1.77-0.73h-1.5"/><path class="s0" d="m4 22h16"/><path class="s0" d="m10 14.66v2.34c0 0.55-0.47 0.98-0.97 1.21-1.18 0.54-2.03 2.03-2.03 3.79"/><path class="s0" d="m14 14.66v2.34c0 0.55 0.47 0.98 0.97 1.21 1.18 0.54 2.03 2.03 2.03 3.79"/><path class="s0" d="m18 2h-12v7c0 1.59 0.63 3.12 1.76 4.24 1.12 1.13 2.65 1.76 4.24 1.76 1.59 0 3.12-0.63 4.24-1.76 1.13-1.12 1.76-2.65 1.76-4.24z"/></svg>