<svg xmlns="http://www.w3.org/2000/svg" version="1.2" viewBox="0 0 24 24" width="24" height="24"><style>.s0 { fill: none;stroke: #000000;stroke-linecap: round;stroke-linejoin: round;stroke-width: 2 } </style><path class="s0" d="m20 13c0 5-3.5 7.5-7.66 8.95q-0.08 0.03-0.17 0.04-0.08 0.01-0.17 0.01-0.08 0-0.17-0.01-0.08-0.02-0.16-0.05c-4.17-1.44-7.67-3.94-7.67-8.94v-7q0-0.2 0.08-0.38 0.07-0.19 0.21-0.33 0.14-0.14 0.33-0.21 0.18-0.08 0.38-0.08c2 0 4.5-1.2 6.24-2.72q0.16-0.14 0.35-0.21 0.2-0.07 0.41-0.07 0.21 0 0.41 0.07 0.19 0.07 0.35 0.21c1.75 1.53 4.24 2.72 6.24 2.72q0.2 0 0.38 0.08 0.19 0.07 0.33 0.21 0.14 0.14 0.21 0.33 0.08 0.18 0.08 0.38z"/></svg>