<svg xmlns="http://www.w3.org/2000/svg" version="1.2" viewBox="0 0 24 24" width="24" height="24"><style>.s0 { fill: none;stroke: #000000;stroke-linecap: round;stroke-linejoin: round;stroke-width: 2 } </style><path class="s0" d="m12 10.19v3.81"/><path class="s0" d="m12 2v3"/><path class="s0" d="m19 13v-6q0-0.4-0.15-0.77-0.16-0.36-0.44-0.64-0.28-0.28-0.64-0.44-0.37-0.15-0.77-0.15h-10q-0.4 0-0.77 0.15-0.36 0.16-0.64 0.44-0.28 0.28-0.44 0.64-0.15 0.37-0.15 0.77v6"/><path class="s0" d="m19.38 20q0.4-0.68 0.71-1.4 0.3-0.73 0.51-1.49 0.2-0.76 0.31-1.54 0.1-0.78 0.09-1.57l-8.19-3.64q-0.19-0.08-0.39-0.13-0.21-0.04-0.42-0.04-0.21 0-0.42 0.04-0.2 0.05-0.39 0.13l-8.19 3.64q-0.02 1.06 0.16 2.1 0.17 1.04 0.53 2.04 0.36 0.99 0.9 1.91 0.53 0.91 1.22 1.71"/><path class="s0" d="m2 21c0.6 0.5 1.2 1 2.5 1 2.5 0 2.5-2 5-2 1.3 0 1.9 0.5 2.5 1 0.6 0.5 1.2 1 2.5 1 2.5 0 2.5-2 5-2 1.3 0 1.9 0.5 2.5 1"/></svg>