<svg xmlns="http://www.w3.org/2000/svg" version="1.2" viewBox="0 0 24 24" width="24" height="24"><style>.s0 { fill: none;stroke: #000000;stroke-linecap: round;stroke-linejoin: round;stroke-width: 2 } </style><path class="s0" d="m6 22v-18q0-0.4 0.15-0.77 0.16-0.36 0.44-0.64 0.28-0.28 0.64-0.44 0.37-0.15 0.77-0.15h8q0.4 0 0.77 0.15 0.36 0.16 0.64 0.44 0.28 0.28 0.44 0.64 0.15 0.37 0.15 0.77v18z"/><path class="s0" d="m6 12h-2q-0.4 0-0.77 0.15-0.36 0.16-0.64 0.44-0.28 0.28-0.44 0.64-0.15 0.37-0.15 0.77v6q0 0.4 0.15 0.77 0.16 0.36 0.44 0.64 0.28 0.28 0.64 0.44 0.37 0.15 0.77 0.15h2"/><path class="s0" d="m18 9h2q0.4 0 0.77 0.15 0.36 0.16 0.64 0.44 0.28 0.28 0.44 0.64 0.15 0.37 0.15 0.77v9q0 0.4-0.15 0.77-0.16 0.36-0.44 0.64-0.28 0.28-0.64 0.44-0.37 0.15-0.77 0.15h-2"/><path class="s0" d="m10 6h4"/><path class="s0" d="m10 10h4"/><path class="s0" d="m10 14h4"/><path class="s0" d="m10 18h4"/></svg>