<svg xmlns="http://www.w3.org/2000/svg" width="65" height="52" viewBox="0 0 65 52" fill="none"><path d="M22.75 3.25V17.875H35.75L25.0859 3.25H22.75ZM39 21.125H38.8984H21.125H16.25H15.5391L15.0313 20.7188L10.6641 16.25H6.5V24.375H14.625H16.25V27.625H14.625H6.5V35.75H10.6641L15.0313 31.3828L15.5391 30.875H16.25H21.125H38.8984H39H50.0703L61.75 26.5078V25.5938L50.0703 21.125H39ZM3.25 27.625H1.625H0V24.375H1.625H3.25V14.625V13H4.875H11.375H11.9844L12.4922 13.5078L16.8594 17.875H19.5V3.25H17.875V0H19.5H21.125H25.8984H26H30.875H32.5V3.25H30.875H29.1484L39.8125 17.875H50.375H50.5781L50.8828 17.9766L63.8828 22.8516L65 23.2578V24.375V27.625V28.8438L63.8828 29.1484L50.8828 34.0234L50.5781 34.125H50.375H39.8125L29.1484 48.75H30.875H32.5V52H30.875H26H25.8984H21.125H19.5H17.875V48.75H19.5V34.125H16.8594L12.4922 38.5938L11.9844 39H11.375H4.875H3.25V37.375V27.625ZM22.75 48.75H25.0859L35.75 34.125H22.75V48.75Z" fill="url(#paint0_linear_440_393)"/><defs><linearGradient id="paint0_linear_440_393" x1="0" y1="26" x2="65" y2="26" gradientUnits="userSpaceOnUse"><stop stop-color="#ED1F24"/><stop offset="0.5" stop-color="#702B8A"/><stop offset="1" stop-color="#3853A4"/></linearGradient></defs></svg>