<svg xmlns="http://www.w3.org/2000/svg" width="52" height="52" viewBox="0 0 52 52" fill="none"><path d="M17.875 0V1.625V6.5H24.375V1.625V0H27.625V1.625V6.5H34.125V1.625V0H37.375V1.625V6.5H42.25H45.5V9.75V14.625H50.375H52V17.875H50.375H45.5V24.375H50.375H52V27.625H50.375H45.5V34.125H50.375H52V37.375H50.375H45.5V42.25V45.5H42.25H37.375V50.375V52H34.125V50.375V45.5H27.625V50.375V52H24.375V50.375V45.5H17.875V50.375V52H14.625V50.375V45.5H9.75H6.5V42.25V37.375H1.625H0V34.125H1.625H6.5V27.625H1.625H0V24.375H1.625H6.5V17.875H1.625H0V14.625H1.625H6.5V9.75V6.5H9.75H14.625V1.625V0H17.875ZM42.25 9.75H9.75V42.25H42.25V9.75ZM32.5 17.875H35.75V19.5V32.5V34.125H32.5V32.5V19.5V17.875ZM13.7109 34.125L14.0156 33.6172L16.25 27.7266V27.625L19.6016 18.9922L20.0078 17.875H22.2422L22.5469 18.9922L25.8984 27.625H26V27.7266L28.1328 33.6172L28.4375 34.125H24.8828L23.6641 30.875H18.4844L17.2656 34.125H13.7109ZM21.125 24.0703L19.7031 27.625H22.4453L21.125 24.0703Z" fill="url(#paint0_linear_440_398)"/><defs><linearGradient id="paint0_linear_440_398" x1="0" y1="26" x2="52" y2="26" gradientUnits="userSpaceOnUse"><stop stop-color="#ED1F24"/><stop offset="0.5" stop-color="#702B8A"/><stop offset="1" stop-color="#3853A4"/></linearGradient></defs></svg>