<svg xmlns="http://www.w3.org/2000/svg" width="59" height="52" viewBox="0 0 59 52" fill="none"><path d="M21.125 0H37.375H39V1.625V6.5H47.125H48.75V8.125V24.375H48.3438L55.7578 26.9141L58.0938 27.7266L56.3672 29.5547L44.9922 41.7422L42.6563 39.6094L52.3047 29.25L30.875 21.8359V39V40.625H27.625V39V21.8359L6.09375 29.25L15.7422 39.6094L13.4063 41.7422L2.03125 29.5547L0.304688 27.7266L2.64063 26.9141L10.0547 24.375H9.75V8.125V6.5H11.375H19.5V1.625V0H21.125ZM35.75 6.5V3.25H22.75V6.5H35.75ZM19.5 9.75H13V23.4609L28.6406 17.9766L29.25 17.875L29.7578 17.9766L45.5 23.4609V9.75H39H37.375H21.125H19.5ZM13.5078 46.6172C15.2344 47.8359 17.3672 48.75 19.5 48.75C21.5313 48.75 23.6641 47.8359 25.3906 46.6172C26.8125 45.6016 28.0313 44.4844 29.25 43.1641C30.3672 44.4844 31.5859 45.6016 33.0078 46.6172C34.7344 47.8359 36.8672 48.75 39 48.75C41.0313 48.75 43.1641 47.8359 44.8906 46.6172C46.3125 45.6016 47.5313 44.4844 48.75 43.1641C49.8672 44.4844 51.0859 45.6016 52.5078 46.6172C54.2344 47.8359 56.3672 48.75 58.5 48.75V52C55.3516 52 52.6094 50.5781 50.6797 49.3594C49.8672 48.75 49.2578 48.2422 48.75 47.7344C48.1406 48.2422 47.5313 48.75 46.7188 49.3594C44.7891 50.5781 42.0469 52 39 52C35.8516 52 33.1094 50.5781 31.1797 49.3594C30.3672 48.75 29.7578 48.2422 29.25 47.7344C28.6406 48.2422 28.0313 48.75 27.2188 49.3594C25.2891 50.5781 22.5469 52 19.5 52C16.3516 52 13.6094 50.5781 11.6797 49.3594C10.8672 48.75 10.2578 48.2422 9.75 47.7344C9.14063 48.2422 8.53125 48.75 7.71875 49.3594C5.78906 50.5781 3.04688 52 0 52V48.75C2.03125 48.75 4.16406 47.8359 5.89063 46.6172C7.3125 45.6016 8.53125 44.4844 9.75 43.1641C10.8672 44.4844 12.0859 45.6016 13.5078 46.6172Z" fill="url(#paint0_linear_440_395)"/><defs><linearGradient id="paint0_linear_440_395" x1="0" y1="26" x2="58.5" y2="26" gradientUnits="userSpaceOnUse"><stop stop-color="#ED1F24"/><stop offset="0.5" stop-color="#702B8A"/><stop offset="1" stop-color="#3853A4"/></linearGradient></defs></svg>