<svg xmlns="http://www.w3.org/2000/svg" width="65" height="52" viewBox="0 0 65 52" fill="none"><path d="M11.375 0H30.0625H31.0781L31.4844 1.01562L38.3906 16.25H38.4922H38.5938H38.6953H38.7969H38.8984H39H39.1016H39.2031H39.3047H39.4063H39.5078H39.6094H39.7109H39.8125H39.9141H40.0156H40.1172H40.2188H40.3203H40.4219H40.5234H40.625H40.7266H40.8281H40.9297H41.0313H41.1328H41.2344H41.3359H41.4375H41.5391H41.6406H41.7422H41.8438H41.9453H42.0469H42.1484H42.25H42.3516H42.4531H42.5547H42.6563H42.7578H42.8594H42.9609H43.0625H43.1641H43.2656H43.3672H43.4688H43.5703H43.6719H43.7734H43.875H43.9766H44.0781H44.1797H44.2813H44.3828H44.4844H44.5859H44.6875H44.7891H44.8906H44.9922H45.0938H45.1953H45.2969H45.3984H45.5H45.6016H45.7031H45.8047H45.9063H46.0078H46.1094H46.2109H46.3125H46.4141H46.5156H46.6172H46.7188H46.8203H46.9219H47.0234H47.125H47.2266H47.3281H47.4297H47.5313H47.6328H47.7344H47.8359H47.9375H48.0391H48.1406H48.2422H48.3438H48.4453H48.5469H48.6484H48.75V8.125V7.51563L49.1563 7.00781L52.4063 3.75781L53.625 2.64063L55.8594 4.875L54.7422 6.09375L52 8.83594V16.25H52.1016H52.2031H52.3047H52.4063H52.5078H52.6094H52.7109H52.8125H52.9141H53.0156H53.1172H53.2188H53.3203H53.4219H53.5234H53.625H53.7266H53.8281H53.9297H54.0313H54.1328H54.2344H54.3359H54.4375H54.5391H54.6406H54.7422H54.8438H54.9453H55.0469H55.1484H55.25H55.3516H55.4531H55.5547H55.6563H55.7578H55.8594H55.9609H56.0625H56.1641H56.2656H56.3672H56.4688H56.5703H56.6719H56.7734H56.875H56.9766H57.0781H57.1797H57.2813H57.3828H57.4844H57.5859H57.6875H57.7891H57.8906H57.9922H58.0938H58.1953H58.2969H58.3984H58.5H58.6016H58.7031H58.8047H58.9063H59.0078H59.1094H59.2109H59.3125H59.4141H59.5156H59.6172H59.7188H59.8203H59.9219H60.0234H60.125H60.2266H60.3281H60.4297H60.5313H60.6328H60.7344H60.8359H60.9375H61.0391H61.1406H61.2422H61.3438H61.4453H61.5469H61.6484H61.75H61.8516H61.9531H62.0547H62.1563H62.2578H62.3594H62.4609H62.5625H62.6641H62.7656H62.8672H62.9688H63.0703H63.1719H63.2734H63.375V17.875V16.25H65V17.875V27.625V28.4375L64.3906 28.9453L56.2656 35.4453L55.7578 35.75H55.25H38.8984V37.375V38.8984L37.4766 39L35.5469 39.2031L36.7656 40.7266L37.6797 41.8438L36.6641 42.8594L29.7578 49.7656L28.7422 50.7813L27.625 49.8672L26.1016 48.6484L25.8984 50.5781L25.7969 52H24.375H14.625H13.1016L13 50.5781L12.7969 48.6484L11.2734 49.8672L10.1563 50.7813L9.14063 49.7656L2.23438 42.8594L1.21875 41.8438L2.13281 40.7266L3.35156 39.2031L1.42188 39L0 38.8984V37.375V27.625V26.2031L1.42188 26.1016L3.35156 25.8984L2.13281 24.375L1.21875 23.2578L2.23438 22.2422L9.14063 15.3359L9.75 14.7266V1.625V0H11.375ZM39 32.5H54.6406L61.6484 26.9141V19.5H61.5469H61.4453H61.3438H61.2422H61.1406H61.0391H60.9375H60.8359H60.7344H60.6328H60.5313H60.4297H60.3281H60.2266H60.125H60.0234H59.9219H59.8203H59.7188H59.6172H59.5156H59.4141H59.3125H59.2109H59.1094H59.0078H58.9063H58.8047H58.7031H58.6016H58.5H58.3984H58.2969H58.1953H58.0938H57.9922H57.8906H57.7891H57.6875H57.5859H57.4844H57.3828H57.2813H57.1797H57.0781H56.9766H56.875H56.7734H56.6719H56.5703H56.4688H56.3672H56.2656H56.1641H56.0625H55.9609H55.8594H55.7578H55.6563H55.5547H55.4531H55.3516H55.25H55.1484H55.0469H54.9453H54.8438H54.7422H54.6406H54.5391H54.4375H54.3359H54.2344H54.1328H54.0313H53.9297H53.8281H53.7266H53.625H53.5234H53.4219H53.3203H53.2188H53.1172H53.0156H52.9141H52.8125H52.7109H52.6094H52.5078H52.4063H52.3047H52.2031H52.1016H52H51.8984H51.7969H51.6953H51.5938H51.4922H51.3906H51.2891H51.1875H51.0859H50.9844H50.8828H50.7813H50.6797H50.5781H50.4766H50.375H50.2734H50.1719H50.0703H49.9688H49.8672H49.7656H49.6641H49.5625H49.4609H49.3594H49.2578H49.1563H49.0547H48.9531H48.8516H48.75H48.6484H48.5469H48.4453H48.3438H48.2422H48.1406H48.0391H47.9375H47.8359H47.7344H47.6328H47.5313H47.4297H47.3281H47.2266H47.125H47.0234H46.9219H46.8203H46.7188H46.6172H46.5156H46.4141H46.3125H46.2109H46.1094H46.0078H45.9063H45.8047H45.7031H45.6016H45.5H45.3984H45.2969H45.1953H45.0938H44.9922H44.8906H44.7891H44.6875H44.5859H44.4844H44.3828H44.2813H44.1797H44.0781H43.9766H43.875H43.7734H43.6719H43.5703H43.4688H43.3672H43.2656H43.1641H43.0625H42.9609H42.8594H42.7578H42.6563H42.5547H42.4531H42.3516H42.25H42.1484H42.0469H41.9453H41.8438H41.7422H41.6406H41.5391H41.4375H41.3359H41.2344H41.1328H41.0313H40.9297H40.8281H40.7266H40.625H40.5234H40.4219H40.3203H40.2188H40.1172H40.0156H39.9141H39.8125H39.7109H39.6094H39.5078H39.4063H39.3047H39.2031H39.1016H39H38.8984H38.7969H38.6953H38.5938H38.4922H38.3906H38.2891H38.1875H38.0859H37.9844H37.8828H37.7813H37.6797H37.5781H37.4766H37.375H37.2734H37.1719H37.0703H36.9688H36.8672H36.7656H36.6641H36.5625H36.4609H36.3594H36.2578H36.1563H36.0547H35.9531H35.8516H35.75H35.6484H35.5469H35.4453H35.3438H35.2422H35.1406H35.0391H34.9375H34.8359H34.7344H34.6328H34.5313H34.4297H34.3281H34.2266H34.125H34.0234L36.6641 22.2422L37.6797 23.2578L36.7656 24.375L35.5469 25.8984L37.4766 26.1016L39 26.2031V27.625V32.5ZM30.7734 16.25H30.6719H30.7734H30.875H30.9766H31.0781H31.1797H31.2813H31.3828H31.4844H31.5859H31.6875H31.7891H31.8906H31.9922H32.0938H32.1953H32.2969H32.3984H32.5H32.6016H32.7031H32.8047H32.9063H33.0078H33.1094H33.2109H33.3125H33.4141H33.5156H33.6172H33.7188H33.8203H33.9219H34.0234H34.125H34.2266H34.3281H34.4297H34.5313H34.6328H34.7344H34.8359L28.9453 3.25H13V14.625V14.5234L13.1016 13H14.625H24.375H25.7969L25.8984 14.5234L26.1016 16.4531L27.625 15.2344L28.7422 14.3203L29.7578 15.3359L30.7734 16.25ZM52 42.25C50.1719 42.25 48.75 43.7734 48.75 45.5C48.75 47.3281 50.1719 48.75 52 48.75C53.7266 48.75 55.25 47.3281 55.25 45.5C55.25 43.7734 53.7266 42.25 52 42.25ZM52 52C49.6641 52 47.5313 50.7813 46.3125 48.75C45.1953 46.8203 45.1953 44.2813 46.3125 42.25C47.5313 40.3203 49.6641 39 52 39C54.2344 39 56.3672 40.3203 57.5859 42.25C58.7031 44.2813 58.7031 46.8203 57.5859 48.75C56.3672 50.7813 54.2344 52 52 52ZM15.7422 19.0938L15.6406 20.0078L14.7266 20.4141C14.625 20.5156 14.4219 20.5156 14.2188 20.6172L13.3047 21.0234L12.4922 20.4141L10.3594 18.6875L5.58594 23.4609L7.3125 25.5938L7.92188 26.4063L7.51563 27.3203C7.51563 27.5234 7.41406 27.625 7.3125 27.8281L7.00781 28.7422L5.99219 28.8438L3.25 29.1484V35.9531L5.99219 36.2578L7.00781 36.3594L7.3125 37.2734C7.41406 37.375 7.51563 37.5781 7.51563 37.7813L7.92188 38.6953L7.3125 39.5078L5.58594 41.6406L10.3594 46.4141L12.4922 44.6875L13.3047 44.0781L14.2188 44.4844C14.4219 44.4844 14.5234 44.5859 14.7266 44.6875L15.6406 44.9922L15.7422 46.0078L16.0469 48.75H22.8516L23.1563 46.0078L23.2578 45.0938L24.1719 44.6875C24.2734 44.5859 24.4766 44.5859 24.6797 44.4844L25.5938 44.0781L26.4063 44.6875L28.5391 46.4141L33.3125 41.6406L31.5859 39.5078L30.9766 38.6953L31.3828 37.7813C31.3828 37.5781 31.4844 37.4766 31.5859 37.2734L31.8906 36.3594L32.9063 36.2578L35.75 35.9531V29.1484L32.9063 28.8438L31.8906 28.7422L31.5859 27.8281C31.4844 27.7266 31.3828 27.5234 31.3828 27.3203L30.9766 26.4063L31.5859 25.5938L33.3125 23.4609L28.5391 18.6875L26.4063 20.4141L25.5938 21.0234L24.6797 20.6172C24.4766 20.6172 24.375 20.5156 24.1719 20.4141L23.2578 20.1094L23.1563 19.0938L22.8516 16.25H16.0469L15.7422 19.0938ZM24.9844 32.5C24.9844 30.5703 23.9688 28.7422 22.2422 27.7266C20.5156 26.8125 18.3828 26.8125 16.6563 27.7266C14.9297 28.7422 13.9141 30.5703 13.9141 32.5C13.9141 34.5313 14.9297 36.3594 16.6563 37.375C18.3828 38.2891 20.5156 38.2891 22.2422 37.375C23.9688 36.3594 24.9844 34.5313 24.9844 32.5ZM19.5 23.7656C22.5469 23.7656 25.4922 25.4922 27.0156 28.1328C28.6406 30.875 28.6406 34.2266 27.0156 36.9688C25.4922 39.6094 22.5469 41.3359 19.5 41.3359C16.3516 41.3359 13.4063 39.6094 11.8828 36.9688C10.2578 34.2266 10.2578 30.875 11.8828 28.1328C13.4063 25.4922 16.3516 23.7656 19.5 23.7656Z" fill="url(#paint0_linear_440_392)"/><defs><linearGradient id="paint0_linear_440_392" x1="0" y1="26" x2="65" y2="26" gradientUnits="userSpaceOnUse"><stop stop-color="#ED1F24"/><stop offset="0.5" stop-color="#702B8A"/><stop offset="1" stop-color="#3853A4"/></linearGradient></defs></svg>