<svg xmlns="http://www.w3.org/2000/svg" width="44" height="52" viewBox="0 0 44 52" fill="none"><path d="M31.7891 37.8828L30.0625 21.8359L29.9609 21.3281L30.1641 20.9219L37.2734 6.39844L24.2734 15.9453L23.8672 16.25H23.3594L7.3125 17.3672L22.0391 23.8672L22.4453 24.0703L22.75 24.4766L31.7891 37.8828ZM32.7031 45.0938L27.1172 36.7656V48.1406H36.8672H38.4922V51.3906H36.8672H25.4922H14.1172H12.4922V48.1406H14.1172H23.8672V32.7031V31.8906L20.3125 26.7109L0 17.6719L0.507813 14.5234L22.75 13.1016L40.7266 0L43.0625 2.03125L33.3125 21.9375L35.6484 44.0781L32.7031 45.0938ZM27.1172 20.5156C27.1172 21.4297 26.3047 22.1406 25.4922 22.1406C24.5781 22.1406 23.8672 21.4297 23.8672 20.5156C23.8672 19.7031 24.5781 18.8906 25.4922 18.8906C26.3047 18.8906 27.1172 19.7031 27.1172 20.5156Z" fill="url(#paint0_linear_440_403)"/><defs><linearGradient id="paint0_linear_440_403" x1="0" y1="25.6953" x2="43.0625" y2="25.6953" gradientUnits="userSpaceOnUse"><stop stop-color="#ED1F24"/><stop offset="0.5" stop-color="#702B8A"/><stop offset="1" stop-color="#3853A4"/></linearGradient></defs></svg>