<svg xmlns="http://www.w3.org/2000/svg" version="1.2" viewBox="0 0 224 115" width="224" height="115"><style>.s0 { fill: #3c3c3b } </style><g><g><g><g><path fill-rule="evenodd" class="s0" d="m221.49 63.8v0.41h-215.76v-0.41z"/></g><g><path class="s0" d="m166.24 54.62c0 0 24.88-9.03 25.58-26.04 0.63-15.15-17.52-24.46-24.83-25.81 0 0 14.69 27.51-0.75 51.85z"/><path class="s0" d="m143.58 55.58c0 0 12.24-11.36 20.58-34.36 0 0 6.5 20.44-0.25 33.85 0 0-10.3 3.01-20.33 0.51z"/></g></g><g><g><g><g><path class="s0" d="m7.04 57.05l3.29-7.39h1.69l3.32 7.39h-1.8l-2.72-6.53h0.69l-2.71 6.53zm1.66-1.58l0.43-1.3h3.82l0.45 1.3z"/><path class="s0" d="m18.22 57.05v-7.39h3.61q1.4 0 2.1 0.53 0.7 0.53 0.7 1.4 0 0.58-0.28 1-0.29 0.43-0.79 0.66-0.5 0.23-1.14 0.23l0.21-0.44q0.69 0 1.23 0.23 0.53 0.23 0.84 0.68 0.31 0.44 0.31 1.09 0 0.95-0.76 1.48-0.75 0.53-2.21 0.53c0 0-3.82 0-3.82 0zm1.7-1.29h2.01q0.65 0 1-0.22 0.35-0.22 0.35-0.69 0-0.47-0.35-0.69-0.35-0.23-1-0.23h-2.14v-1.24h1.83q0.63 0 0.96-0.22 0.33-0.21 0.33-0.66 0-0.44-0.33-0.65-0.33-0.21-0.96-0.21h-1.7z"/><path class="s0" d="m31.7 57.18q-1.58 0-2.46-0.88-0.89-0.88-0.89-2.51v-4.13h1.72v4.08q0 1.05 0.43 1.52 0.44 0.47 1.21 0.47 0.78 0 1.21-0.47 0.44-0.47 0.44-1.52v-4.08h1.68v4.13q0 1.63-0.89 2.51-0.89 0.87-2.45 0.88z"/><path class="s0" d="m43.95 57.05v-7.39h3.36q1.2 0 2.12 0.46 0.92 0.46 1.44 1.29 0.52 0.83 0.52 1.95 0 1.11-0.52 1.95-0.52 0.83-1.44 1.28-0.91 0.46-2.12 0.46h-3.36zm1.72-1.39h1.55q0.74 0 1.29-0.28 0.54-0.28 0.84-0.8 0.3-0.53 0.3-1.22 0-0.71-0.3-1.23-0.3-0.51-0.84-0.8-0.55-0.28-1.29-0.28h-1.55z"/><path class="s0" d="m56.51 57.05h-1.72v-7.39h1.72zm3.35-7.39h1.71v7.39h-1.71zm-0.78 2.94h-1.31l-1.06 1.38v0.01h1.86l0.5-0.65 0.57-0.74z"/><path class="s0" d="m64.46 57.05l3.29-7.39h1.69l3.31 7.39h-1.79l-2.72-6.53h0.69l-2.72 6.53zm1.66-1.58l0.44-1.3h3.82l0.44 1.3z"/><path class="s0" d="m75.64 57.05v-7.39h3.61q1.39 0 2.1 0.53 0.7 0.53 0.7 1.4 0 0.58-0.29 1-0.28 0.43-0.78 0.66-0.5 0.23-1.14 0.23l0.2-0.44q0.7 0 1.24 0.23 0.53 0.23 0.84 0.68 0.3 0.44 0.3 1.09 0 0.95-0.75 1.48-0.75 0.53-2.21 0.53c0 0-3.82 0-3.82 0zm1.7-1.29h2.01q0.65 0 1-0.22 0.35-0.22 0.35-0.69 0-0.47-0.35-0.69-0.35-0.23-1-0.23h-2.14v-1.24h1.83q0.62 0 0.95-0.22 0.34-0.21 0.34-0.66 0-0.44-0.34-0.65-0.33-0.21-0.95-0.21h-1.7z"/><path fill-rule="evenodd" class="s0" d="m87.55 49.66v7.39h-1.72v-7.39z"/></g></g><g><g><path fill-rule="evenodd" class="s0" d="m9.27 72.35v7.39h-1.72v-7.39z"/><path class="s0" d="m13.12 79.74v-7.39h1.42l4.36 5.32h-0.68v-5.32h1.69v7.39h-1.42l-4.36-5.32h0.68v5.32z"/><path class="s0" d="m34.11 78.37h4.02v1.37h-5.72v-7.39h5.58v1.38h-3.88zm-0.13-3.05h3.56v1.34h-3.56z"/><path class="s0" d="m41.61 79.74v-7.39h3.2q0.99 0.01 1.71 0.33 0.72 0.32 1.11 0.92 0.39 0.6 0.39 1.43 0 0.83-0.39 1.43-0.39 0.59-1.11 0.9-0.72 0.32-1.71 0.31h-2.26l0.78-0.74v2.81zm1.72-2.61l-0.78-0.82h2.17q0.78 0 1.18-0.33 0.4-0.34 0.4-0.96 0-0.61-0.4-0.94-0.4-0.33-1.18-0.33h-2.17l0.78-0.82zm2.99 2.62l-1.86-2.68h1.84l1.85 2.68z"/><path class="s0" d="m51.48 79.74v-7.39h1.42l4.36 5.32h-0.68v-5.32h1.69v7.39h-1.42l-4.36-5.32h0.68v5.32z"/><path class="s0" d="m61.16 79.74l3.28-7.39h1.69l3.32 7.39h-1.8l-2.71-6.52h0.69l-2.72 6.52zm1.66-1.58l0.43-1.3h3.83l0.44 1.3z"/><path fill-rule="evenodd" class="s0" d="m82.33 72.35v7.39h-1.72v-7.39z"/><path class="s0" d="m89.77 79.87q-0.87 0-1.61-0.28-0.74-0.29-1.29-0.81-0.55-0.51-0.85-1.21-0.3-0.7-0.3-1.52 0-0.83 0.3-1.53 0.3-0.69 0.85-1.2 0.55-0.52 1.29-0.81 0.73-0.28 1.61-0.28 0.87 0 1.61 0.28 0.73 0.28 1.28 0.8 0.55 0.51 0.85 1.21 0.3 0.7 0.3 1.53 0 0.83-0.3 1.53-0.3 0.7-0.85 1.22-0.54 0.52-1.28 0.79-0.74 0.28-1.61 0.28zm-0.01-1.44q0.5 0 0.92-0.18 0.42-0.17 0.73-0.49 0.32-0.33 0.49-0.75 0.18-0.43 0.18-0.96 0-0.53-0.18-0.96-0.17-0.42-0.49-0.75-0.31-0.32-0.73-0.49-0.42-0.17-0.92-0.17-0.49 0-0.91 0.17-0.43 0.17-0.74 0.49-0.31 0.33-0.48 0.75-0.18 0.43-0.18 0.96 0 0.53 0.18 0.96 0.17 0.42 0.48 0.75 0.31 0.32 0.74 0.49 0.42 0.18 0.91 0.18z"/><path class="s0" d="m97.21 79.74v-7.39h1.41l4.37 5.32h-0.69v-5.32h1.69v7.39h-1.41l-4.37-5.32h0.69v5.32z"/><path class="s0" d="m106.88 79.74l3.29-7.39h1.69l3.32 7.39h-1.8l-2.72-6.52h0.69l-2.71 6.52zm1.66-1.58l0.43-1.3h3.82l0.45 1.3z"/><path class="s0" d="m118.06 79.74v-7.39h1.72v6h3.69v1.39z"/><path class="s0" d="m131.65 79.74v-7.39h3.61q1.4 0.01 2.1 0.53 0.7 0.53 0.7 1.4 0 0.58-0.28 1.01-0.29 0.42-0.79 0.65-0.5 0.24-1.14 0.24l0.21-0.45q0.69 0 1.23 0.23 0.53 0.24 0.84 0.68 0.31 0.44 0.31 1.09 0 0.95-0.76 1.48-0.74 0.54-2.2 0.54h-3.83zm1.7-1.29h2.01q0.66 0 1-0.22 0.35-0.22 0.35-0.69 0-0.47-0.35-0.69-0.34-0.23-1-0.23h-2.13v-1.24h1.82q0.63 0 0.96-0.22 0.33-0.21 0.33-0.66 0-0.44-0.33-0.65-0.33-0.21-0.96-0.21h-1.7z"/><path class="s0" d="m145.44 79.87q-0.88 0-1.62-0.28-0.74-0.29-1.29-0.81-0.54-0.51-0.85-1.21-0.3-0.7-0.3-1.52 0-0.83 0.3-1.53 0.31-0.69 0.85-1.2 0.55-0.52 1.29-0.81 0.73-0.28 1.61-0.28 0.87 0 1.61 0.28 0.74 0.28 1.28 0.8 0.55 0.51 0.86 1.21 0.3 0.7 0.3 1.53 0 0.83-0.3 1.53-0.31 0.7-0.86 1.22-0.54 0.52-1.28 0.79-0.74 0.28-1.6 0.28zm-0.01-1.44q0.49 0 0.91-0.18 0.42-0.17 0.74-0.49 0.31-0.33 0.49-0.75 0.17-0.43 0.17-0.96 0-0.53-0.17-0.96-0.18-0.42-0.49-0.75-0.32-0.32-0.74-0.49-0.42-0.17-0.91-0.17-0.5 0-0.92 0.17-0.42 0.17-0.74 0.49-0.31 0.33-0.48 0.75-0.18 0.43-0.18 0.96 0 0.53 0.18 0.96 0.17 0.42 0.48 0.75 0.32 0.32 0.74 0.49 0.42 0.18 0.92 0.18z"/><path class="s0" d="m151.79 79.74l3.29-7.39h1.69l3.31 7.39h-1.79l-2.72-6.52h0.69l-2.71 6.52zm1.66-1.58l0.43-1.3h3.82l0.45 1.3z"/><path class="s0" d="m178.78 79.87q-0.89 0-1.71-0.24-0.82-0.24-1.31-0.61l0.58-1.29q0.46 0.33 1.12 0.55 0.65 0.22 1.32 0.22 0.51 0 0.82-0.11 0.31-0.1 0.46-0.28 0.15-0.17 0.15-0.4 0-0.3-0.23-0.48-0.24-0.17-0.62-0.28-0.39-0.11-0.84-0.21-0.46-0.1-0.92-0.25-0.46-0.14-0.84-0.38-0.39-0.23-0.61-0.62-0.23-0.39-0.23-0.97 0-0.63 0.34-1.15 0.34-0.53 1.03-0.83 0.69-0.31 1.74-0.32 0.69 0.01 1.38 0.18 0.68 0.16 1.18 0.48l-0.54 1.29q-0.49-0.29-1.02-0.43-0.53-0.14-1.01-0.14-0.51 0-0.82 0.11-0.3 0.11-0.45 0.3-0.14 0.19-0.14 0.42 0 0.3 0.23 0.48 0.23 0.18 0.61 0.28 0.38 0.1 0.85 0.2 0.47 0.1 0.92 0.25 0.45 0.14 0.83 0.37 0.38 0.23 0.62 0.62 0.24 0.38 0.24 0.95 0 0.63-0.34 1.14-0.34 0.52-1.04 0.83-0.7 0.32-1.75 0.32z"/><path class="s0" d="m186.91 79.74h-1.72v-7.39h1.72zm3.48-3.03h-3.61v-1.44h3.61zm-0.13-4.36h1.71v7.39h-1.71z"/><path class="s0" d="m199.43 79.87q-0.88 0-1.61-0.28-0.74-0.29-1.29-0.81-0.55-0.51-0.85-1.21-0.3-0.7-0.3-1.52 0-0.83 0.3-1.53 0.3-0.69 0.85-1.2 0.55-0.52 1.28-0.81 0.73-0.28 1.61-0.28 0.88 0 1.62 0.28 0.73 0.28 1.28 0.8 0.55 0.51 0.85 1.21 0.3 0.7 0.3 1.53 0 0.83-0.3 1.53-0.3 0.7-0.85 1.22-0.55 0.52-1.28 0.79-0.74 0.28-1.61 0.28zm-0.01-1.44q0.5 0 0.92-0.18 0.41-0.17 0.73-0.49 0.32-0.33 0.49-0.75 0.18-0.43 0.18-0.96 0-0.53-0.18-0.96-0.17-0.42-0.49-0.75-0.32-0.32-0.73-0.49-0.42-0.17-0.92-0.17-0.5 0-0.92 0.17-0.42 0.17-0.73 0.49-0.31 0.33-0.49 0.75-0.17 0.43-0.17 0.96 0 0.53 0.17 0.96 0.18 0.42 0.49 0.75 0.31 0.32 0.73 0.49 0.42 0.18 0.92 0.18z"/><path class="s0" d="m208.41 79.74l-2.43-7.39h1.77l2.11 6.55h-0.89l2.19-6.55h1.59l2.11 6.55h-0.85l2.15-6.55h1.64l-2.43 7.39h-1.82l-1.88-5.74h0.49l-1.92 5.74z"/><g><path fill-rule="evenodd" class="s0" d="m27.01 73.75h-0.01l0.01-0.01v-1.39h-4.08v1.4h2.37v5.99h1.71v-5.62-0.37z"/><path fill-rule="evenodd" class="s0" d="m29.38 72.35h-1.31l-1.06 1.39v0.01h1.87l0.5-0.66 0.56-0.74z"/><path fill-rule="evenodd" class="s0" d="m27 73.75h0.01v-0.01z"/></g><g><path fill-rule="evenodd" class="s0" d="m74.68 73.75l0.01-0.01v-1.39h-4.08v1.4h2.37v5.99h1.71v-5.62-0.37z"/><path fill-rule="evenodd" class="s0" d="m77.06 72.35h-1.31l-1.06 1.39v0.01h1.87l0.5-0.66 0.56-0.74z"/><path fill-rule="evenodd" class="s0" d="m74.68 73.75h0.01v-0.01z"/></g><g><path fill-rule="evenodd" class="s0" d="m165.84 73.75v-0.01-1.39h-4.08v1.4h2.37v5.99h1.71v-5.62-0.37z"/><path fill-rule="evenodd" class="s0" d="m168.21 72.35h-1.31l-1.06 1.39v0.01h1.87l0.5-0.66 0.57-0.74z"/><path fill-rule="evenodd" class="s0" d="m165.84 73.75v-0.01z"/></g></g></g></g></g></g><g><g><path class="s0" d="m32.63 103.86q-1.31 0-2.29-0.17-0.99-0.17-1.65-0.52-0.66-0.35-1-0.91-0.34-0.57-0.34-1.37 0-0.37 0.06-0.76 0.06-0.39 0.15-0.78 0.1-0.4 0.2-0.76l1.1 0.28q-0.06 0.22-0.13 0.51-0.07 0.31-0.13 0.61-0.05 0.31-0.05 0.56 0 0.76 0.39 1.22 0.39 0.46 1.36 0.68 0.96 0.21 2.71 0.21l0.29 0.73zm0 0l0.39-1.2q1.71 0 2.95-0.09 1.24-0.09 2.04-0.29 0.8-0.2 1.19-0.54 0.39-0.34 0.39-0.84 0-0.56-0.21-1.29-0.21-0.73-0.53-1.57l1.13-0.39q0.19 0.47 0.36 1 0.17 0.54 0.29 1.05 0.11 0.52 0.11 0.96 0 0.87-0.39 1.47-0.4 0.61-1.32 0.99-0.93 0.39-2.49 0.56-1.56 0.18-3.91 0.18zm1.41 2.79q-0.3-0.01-0.52-0.22-0.21-0.21-0.21-0.5 0-0.29 0.21-0.51 0.21-0.22 0.52-0.22 0.29 0 0.51 0.22 0.21 0.22 0.21 0.51 0 0.29-0.21 0.5-0.22 0.21-0.51 0.22z"/><path class="s0" d="m41.53 106.92l-0.42-1.11q1.47-0.47 2.28-1.13 0.79-0.65 1.1-1.35 0.29-0.7 0.3-1.35 0-0.41-0.09-0.79-0.09-0.38-0.31-0.86-0.22-0.49-0.61-1.2l1.06-0.55q0.56 0.95 0.8 1.8 0.25 0.85 0.25 1.5 0 0.92-0.3 1.67-0.31 0.75-0.8 1.32-0.49 0.58-1.07 0.99-0.57 0.41-1.15 0.68-0.59 0.26-1.04 0.38z"/><path class="s0" d="m48.2 103.55l-0.29-10.46h1.19l0.29 10.46z"/><path class="s0" d="m51.19 106.92l-0.26-1.2q0.88-0.12 1.61-0.33 0.75-0.21 1.28-0.61 0.54-0.4 0.83-1.04 0.29-0.65 0.29-1.61 0-1-0.36-1.66-0.37-0.66-0.96-0.66-0.3 0-0.57 0.24-0.26 0.23-0.43 0.63-0.17 0.39-0.17 0.86 0 0.26 0.12 0.43 0.11 0.17 0.34 0.27 0.23 0.09 0.58 0.14 0.36 0.04 0.82 0.04h3.1q0.31 0 0.44 0.17 0.14 0.17 0.14 0.4 0 0.24-0.2 0.43-0.21 0.2-0.53 0.2h-3.5q-0.66 0-1.23-0.19-0.56-0.19-0.9-0.6-0.35-0.4-0.35-1.06 0-0.61 0.19-1.18 0.19-0.56 0.52-1.01 0.33-0.44 0.78-0.71 0.45-0.26 0.97-0.26 0.68 0 1.2 0.4 0.53 0.39 0.84 1.19 0.31 0.8 0.31 2.01 0 1.37-0.55 2.35-0.55 0.99-1.64 1.58-1.1 0.59-2.71 0.78z"/><path class="s0" d="m57.26 103.62l0.15-1.2q0.36 0 0.75-0.01 0.39 0 0.77-0.03 0.38-0.03 0.73-0.07 0.36-0.05 0.63-0.14 0.51-0.16 0.95-0.42 0.43-0.26 0.7-0.65 0.27-0.38 0.27-0.88 0-0.33-0.16-0.69-0.16-0.36-0.44-0.61-0.28-0.25-0.65-0.25-0.35 0-0.65 0.24-0.3 0.23-0.48 0.6-0.19 0.38-0.19 0.77 0 0.47 0.25 0.84 0.24 0.38 0.59 0.64 0.35 0.26 0.7 0.43l-1.39 0.41q-0.23-0.17-0.55-0.49-0.31-0.32-0.56-0.79-0.24-0.47-0.24-1.07 0-0.58 0.21-1.09 0.21-0.5 0.57-0.88 0.36-0.38 0.82-0.6 0.46-0.21 0.96-0.21 0.72 0 1.26 0.4 0.54 0.39 0.85 1 0.3 0.61 0.3 1.27 0 0.62-0.24 1.13-0.23 0.51-0.64 0.9-0.4 0.4-0.94 0.68-0.53 0.28-1.13 0.45-0.34 0.11-0.73 0.16-0.39 0.06-0.81 0.1-0.43 0.03-0.85 0.05-0.41 0.01-0.81 0.01zm2.64-7.66q-0.31 0-0.52-0.21-0.22-0.21-0.21-0.5 0-0.3 0.21-0.52 0.21-0.22 0.52-0.22 0.29 0 0.5 0.22 0.22 0.22 0.22 0.52 0 0.29-0.22 0.5-0.21 0.21-0.5 0.21zm4.62 7.66q-0.74 0-1.52-0.09-0.78-0.1-1.48-0.25-0.7-0.16-1.15-0.35l1.01-0.73q0.44 0.06 1.04 0.11 0.6 0.05 1.2 0.08 0.6 0.03 1.04 0.03 0.31 0 0.45 0.17 0.14 0.17 0.14 0.4 0 0.24-0.2 0.43-0.21 0.2-0.53 0.2zm-2.61-7.66q-0.31 0-0.53-0.21-0.21-0.21-0.21-0.5 0-0.3 0.21-0.52 0.21-0.22 0.53-0.22 0.29 0 0.5 0.22 0.21 0.22 0.21 0.52 0 0.29-0.21 0.5-0.21 0.21-0.5 0.21z"/><path class="s0" d="m64.52 103.62l0.13-1.2q0.83 0 1.17-0.16 0.34-0.16 0.39-0.57 0.05-0.41 0.02-1.14l-0.25-7.46h1.22l0.23 7.43q0.03 0.75 0.24 1.16 0.22 0.42 0.59 0.58 0.36 0.16 0.8 0.17 0.31 0 0.45 0.16 0.14 0.17 0.14 0.4 0 0.24-0.21 0.43-0.2 0.2-0.53 0.2-0.61 0-1.01-0.2-0.41-0.19-0.63-0.51-0.23-0.31-0.3-0.66l0.31 0.02q-0.15 0.44-0.48 0.75-0.33 0.3-0.89 0.45-0.56 0.15-1.39 0.15z"/><path class="s0" d="m68.91 103.62l0.14-1.2q0.83 0 1.17-0.16 0.34-0.16 0.39-0.57 0.05-0.41 0.03-1.14l-0.28-7.46h1.18l0.3 7.33q0.03 0.78-0.05 1.37-0.09 0.6-0.39 1.01-0.3 0.41-0.89 0.62-0.6 0.2-1.6 0.2z"/><path class="s0" d="m76.98 103.56q0-0.34 0.06-0.75 0.07-0.4 0.21-0.86 0.14-0.46 0.34-0.98l1.06 0.41q-0.15 0.41-0.26 0.78-0.11 0.37-0.16 0.69-0.05 0.32-0.05 0.61 0 0.62 0.27 1.05 0.27 0.43 0.75 0.71 0.48 0.28 1.11 0.41 0.62 0.13 1.33 0.13 0.85 0 1.59-0.14 0.74-0.15 1.3-0.42 0.57-0.27 0.89-0.62 0.32-0.34 0.32-0.74 0.01-0.19-0.14-0.35-0.15-0.16-0.44-0.31-0.3-0.14-0.71-0.28-0.41-0.14-0.93-0.29l0.28-1.22q0.76 0.3 1.34 0.5 0.59 0.19 1.03 0.31 0.44 0.12 0.76 0.17 0.32 0.05 0.54 0.05 0.31 0 0.45 0.17 0.14 0.16 0.14 0.4 0 0.23-0.2 0.43-0.21 0.19-0.53 0.2-0.09 0-0.18 0-0.09 0-0.18 0-0.1 0-0.19 0 0.03 0.13 0.05 0.21 0.01 0.08 0.01 0.21 0 0.54-0.37 1.05-0.37 0.52-1.09 0.94-0.72 0.41-1.74 0.66-1.02 0.25-2.33 0.25-1.16 0-2.15-0.37-0.98-0.38-1.59-1.12-0.59-0.74-0.59-1.89zm3.38 6.16q-0.3 0-0.52-0.21-0.21-0.22-0.21-0.51 0-0.29 0.21-0.51 0.22-0.22 0.52-0.22 0.3 0 0.51 0.22 0.21 0.22 0.21 0.51 0 0.29-0.21 0.51-0.22 0.21-0.51 0.21zm2.01 0q-0.31 0-0.52-0.21-0.21-0.22-0.21-0.51 0-0.29 0.21-0.51 0.21-0.22 0.52-0.22 0.29 0 0.51 0.22 0.21 0.22 0.21 0.51 0 0.29-0.21 0.51-0.22 0.21-0.51 0.21z"/><path class="s0" d="m87.33 103.62l0.13-1.2q0.83 0 1.17-0.16 0.34-0.16 0.39-0.57 0.05-0.41 0.03-1.14l-0.28-7.46h1.19l0.29 7.33q0.03 0.78-0.05 1.37-0.08 0.6-0.38 1.01-0.31 0.41-0.9 0.62-0.6 0.2-1.59 0.2z"/><path class="s0" d="m91.99 106.92l-0.27-1.2q0.88-0.12 1.62-0.33 0.74-0.21 1.28-0.61 0.53-0.4 0.83-1.04 0.29-0.65 0.29-1.61 0-0.46-0.09-0.88-0.09-0.41-0.26-0.74-0.18-0.32-0.42-0.51-0.24-0.19-0.55-0.19-0.34 0-0.61 0.26-0.27 0.25-0.42 0.65-0.16 0.39-0.16 0.79 0 0.31 0.13 0.54 0.12 0.22 0.42 0.34 0.29 0.12 0.76 0.12 0.42 0 0.85-0.09 0.44-0.09 0.75-0.24l0.05 1.03q-0.35 0.25-0.82 0.35-0.48 0.1-0.96 0.1-0.56 0-0.99-0.12-0.43-0.11-0.74-0.34-0.3-0.23-0.45-0.58-0.15-0.35-0.15-0.82 0-0.56 0.17-1.12 0.17-0.56 0.5-1.03 0.32-0.47 0.78-0.76 0.45-0.28 1.01-0.28 0.59 0 1.03 0.3 0.43 0.3 0.73 0.81 0.29 0.51 0.44 1.16 0.15 0.64 0.15 1.33 0 1.36-0.55 2.35-0.55 0.99-1.65 1.57-1.09 0.6-2.7 0.79z"/><path class="s0" d="m100.84 102.43q0.73 0 1.17-0.15 0.43-0.15 0.63-0.43 0.2-0.29 0.2-0.67 0-0.29-0.16-0.7-0.15-0.41-0.42-0.91-0.26-0.51-0.6-1.07-0.35-0.57-0.74-1.15l1.01-0.66q0.57 0.86 0.99 1.63 0.43 0.77 0.72 1.44 0.3 0.67 0.47 1.25 0.21 0.65 0.46 0.95 0.26 0.31 0.54 0.39 0.28 0.09 0.51 0.09 0.31 0 0.46 0.16 0.14 0.17 0.14 0.41 0 0.23-0.2 0.43-0.21 0.19-0.53 0.19-0.48 0-0.95-0.18-0.46-0.19-0.8-0.6-0.34-0.42-0.46-1.12l0.58-0.47q0 0.59-0.25 1.14-0.25 0.55-0.9 0.9-0.65 0.35-1.87 0.35-0.52 0-1.01-0.09-0.49-0.09-0.9-0.25-0.41-0.17-0.73-0.41l0.59-1.01q0.29 0.19 0.82 0.37 0.52 0.16 1.23 0.17z"/><path class="s0" d="m105.49 103.62l0.13-1.2q0.84 0 1.18-0.16 0.33-0.16 0.39-0.57 0.05-0.41 0.02-1.14l-0.28-7.46h1.19l0.29 7.33q0.03 0.78-0.05 1.37-0.08 0.6-0.38 1.01-0.3 0.41-0.9 0.62-0.59 0.2-1.59 0.2z"/><path class="s0" d="m110.65 103.55l-0.3-10.46h1.19l0.3 10.46z"/><path class="s0" d="m117.04 103.56q0-0.34 0.06-0.75 0.07-0.4 0.21-0.86 0.14-0.46 0.34-0.98l1.06 0.41q-0.15 0.41-0.26 0.78-0.1 0.37-0.16 0.69-0.05 0.32-0.05 0.61 0 0.62 0.27 1.05 0.27 0.43 0.76 0.71 0.48 0.28 1.1 0.41 0.63 0.13 1.33 0.13 0.85 0 1.59-0.14 0.74-0.15 1.3-0.42 0.57-0.27 0.89-0.62 0.32-0.34 0.32-0.74 0-0.19-0.14-0.35-0.15-0.16-0.45-0.31-0.29-0.14-0.7-0.28-0.41-0.14-0.94-0.29l0.28-1.22q0.76 0.3 1.35 0.5 0.59 0.19 1.03 0.31 0.44 0.12 0.76 0.17 0.32 0.05 0.54 0.05 0.31 0 0.45 0.17 0.14 0.16 0.14 0.4 0 0.23-0.2 0.43-0.21 0.19-0.53 0.2-0.09 0-0.17 0-0.09 0-0.19 0-0.1 0-0.18 0 0.03 0.13 0.04 0.21 0.02 0.08 0.01 0.21 0.01 0.54-0.37 1.05-0.37 0.52-1.09 0.94-0.72 0.41-1.74 0.66-1.02 0.25-2.32 0.25-1.16 0-2.15-0.37-0.99-0.38-1.59-1.12-0.6-0.74-0.6-1.89zm3.39 6.16q-0.31 0-0.53-0.21-0.21-0.22-0.21-0.51 0-0.29 0.21-0.51 0.21-0.22 0.53-0.22 0.29 0 0.5 0.22 0.21 0.22 0.21 0.51 0 0.29-0.21 0.51-0.21 0.21-0.5 0.21zm2.01 0q-0.31 0-0.53-0.21-0.21-0.22-0.21-0.51 0-0.29 0.21-0.51 0.21-0.22 0.53-0.22 0.29 0 0.5 0.22 0.21 0.22 0.21 0.51 0 0.29-0.21 0.51-0.21 0.21-0.5 0.21z"/><path class="s0" d="m127.39 103.62l0.15-1.2q0.61 0 0.96-0.11 0.35-0.11 0.54-0.42 0.18-0.31 0.31-0.92 0.14-0.59 0.32-1.56l1.15 0.22q-0.06 0.26-0.14 0.58-0.07 0.33-0.12 0.64-0.05 0.32-0.05 0.55 0 0.29 0.13 0.53 0.13 0.24 0.57 0.37 0.44 0.13 1.35 0.13 0.31 0 0.45 0.17 0.14 0.16 0.14 0.4 0 0.23-0.21 0.43-0.2 0.2-0.52 0.2-0.96-0.01-1.5-0.17-0.54-0.17-0.79-0.51-0.25-0.35-0.34-0.85l0.44 0.04q-0.23 0.47-0.5 0.76-0.28 0.29-0.6 0.45-0.32 0.16-0.75 0.22-0.42 0.05-0.99 0.05zm2.49 2.73q-0.31 0-0.52-0.21-0.21-0.21-0.21-0.51 0-0.29 0.21-0.51 0.21-0.22 0.52-0.22 0.29 0 0.5 0.22 0.22 0.22 0.22 0.51 0 0.3-0.22 0.51-0.2 0.21-0.5 0.21z"/><path class="s0" d="m132.42 103.62l0.14-1.2h3.07q1.27 0 2.2-0.11 0.93-0.11 1.53-0.33 0.6-0.22 0.9-0.56 0.29-0.34 0.29-0.81 0-0.25-0.16-0.54-0.16-0.29-0.5-0.51-0.33-0.21-0.89-0.21-0.7 0-1.4 0.37-0.7 0.36-1.32 0.91-0.62 0.55-1.1 1.12-0.49 0.57-0.78 1l-1.28-0.05q0.47-0.76 1.12-1.56 0.65-0.79 1.44-1.48 0.78-0.68 1.65-1.1 0.87-0.42 1.76-0.41 0.8 0 1.38 0.32 0.58 0.33 0.9 0.89 0.32 0.56 0.31 1.26 0 0.69-0.5 1.38-0.49 0.7-1.71 1.09-0.62 0.21-1.41 0.32-0.79 0.12-1.8 0.17-1.01 0.04-2.3 0.04c0 0-1.54 0-1.54 0zm1.39-1.45l-0.29-9.08h1.18l0.3 8.06zm4.56-5.54q-0.31 0-0.52-0.21-0.21-0.21-0.21-0.5 0-0.29 0.21-0.51 0.21-0.23 0.52-0.23 0.29 0 0.5 0.23 0.21 0.22 0.21 0.51 0 0.29-0.21 0.5-0.21 0.21-0.5 0.21z"/><path class="s0" d="m143.19 106.92l-0.26-1.2q0.88-0.12 1.61-0.33 0.75-0.21 1.28-0.61 0.54-0.4 0.83-1.04 0.29-0.65 0.29-1.61 0-1-0.36-1.66-0.37-0.66-0.96-0.66-0.3 0-0.57 0.24-0.26 0.23-0.43 0.63-0.17 0.39-0.17 0.86 0 0.26 0.12 0.43 0.11 0.17 0.34 0.27 0.23 0.09 0.58 0.14 0.36 0.04 0.82 0.04h3.1q0.31 0 0.44 0.17 0.14 0.17 0.14 0.4 0 0.24-0.2 0.43-0.21 0.2-0.53 0.2h-3.5q-0.66 0-1.23-0.19-0.56-0.19-0.9-0.6-0.35-0.4-0.35-1.06 0-0.61 0.19-1.18 0.19-0.56 0.52-1.01 0.33-0.44 0.78-0.71 0.45-0.26 0.97-0.26 0.68 0 1.21 0.4 0.52 0.39 0.83 1.19 0.31 0.8 0.31 2.01 0 1.37-0.55 2.35-0.55 0.99-1.64 1.58-1.1 0.59-2.71 0.78z"/><path class="s0" d="m149.26 103.62l0.15-1.2q0.72 0 1.14-0.09 0.43-0.08 0.62-0.36 0.19-0.27 0.19-0.81 0-0.37-0.12-0.87-0.12-0.51-0.31-1.08-0.19-0.57-0.41-1.13l1.19-0.44q0.19 0.47 0.36 1.07 0.17 0.6 0.29 1.19 0.11 0.58 0.11 1.02 0 0.59-0.12 1.04-0.13 0.44-0.37 0.76-0.26 0.31-0.64 0.51-0.39 0.2-0.9 0.29-0.52 0.1-1.18 0.1zm1.57 2.73q-0.31 0-0.52-0.21-0.21-0.21-0.21-0.51 0-0.29 0.21-0.51 0.21-0.22 0.52-0.22 0.29 0 0.5 0.22 0.21 0.22 0.21 0.51 0 0.3-0.21 0.51-0.21 0.21-0.5 0.21z"/><path class="s0" d="m153.54 93.24l-0.18-0.79q0.38-0.09 0.62-0.15 0.23-0.06 0.53-0.13l-0.07 0.3q-0.38-0.11-0.73-0.49-0.34-0.39-0.35-0.87 0.01-0.44 0.22-0.74 0.21-0.3 0.55-0.44 0.35-0.15 0.74-0.15 0.17 0 0.35 0.03 0.18 0.03 0.34 0.09l-0.11 0.73q-0.15-0.03-0.28-0.06-0.13-0.03-0.3-0.03-0.33 0-0.52 0.14-0.19 0.14-0.19 0.39 0 0.31 0.2 0.53 0.19 0.22 0.45 0.34 0.26 0.12 0.42 0.12l-0.61 0.06q0.4-0.1 0.75-0.21 0.34-0.11 0.62-0.21l0.23 0.75q-0.35 0.13-0.82 0.28-0.48 0.14-0.96 0.28-0.49 0.13-0.9 0.23zm0.97 10.31l-0.25-9.43h1.19l0.25 9.43z"/><path class="s0" d="m165.05 106.95q-0.84 0-1.58-0.23-0.75-0.22-1.33-0.66-0.58-0.44-0.91-1.06-0.33-0.62-0.33-1.43 0-0.35 0.07-0.76 0.06-0.4 0.2-0.86 0.14-0.46 0.35-0.98l1.05 0.41q-0.15 0.41-0.26 0.78-0.1 0.37-0.16 0.69-0.05 0.32-0.05 0.62 0 0.74 0.41 1.26 0.4 0.51 1.08 0.76 0.68 0.26 1.5 0.26 1 0 1.67-0.25 0.67-0.25 1.07-0.67 0.4-0.41 0.57-0.93 0.16-0.52 0.16-1.07 0-0.71-0.21-1.48-0.21-0.77-0.46-1.64l1.19-0.32q0.16 0.56 0.24 0.9 0.08 0.34 0.13 0.56 0.06 0.21 0.11 0.35 0.16 0.39 0.46 0.64 0.31 0.26 0.8 0.41 0.49 0.15 1.21 0.22 0.71 0.07 1.7 0.06 0.77 0 1.41-0.07 0.64-0.07 1.14-0.23 0.5-0.15 0.84-0.38 0.34-0.23 0.52-0.52 0.18-0.31 0.18-0.67 0-0.32-0.16-0.64-0.16-0.31-0.5-0.53-0.34-0.22-0.9-0.22-0.7 0-1.4 0.36-0.69 0.37-1.31 0.92-0.63 0.55-1.11 1.12-0.48 0.57-0.78 0.99l-1.27-0.04q0.36-0.6 0.86-1.25 0.5-0.64 1.09-1.23 0.58-0.59 1.24-1.05 0.66-0.47 1.36-0.75 0.7-0.28 1.41-0.28 0.81 0 1.39 0.33 0.57 0.33 0.89 0.89 0.31 0.56 0.31 1.26 0 0.64-0.28 1.22-0.27 0.58-0.9 1.02-0.64 0.44-1.69 0.7-1.06 0.25-2.61 0.25-1.12 0-1.9-0.14-0.78-0.14-1.29-0.36-0.51-0.23-0.76-0.5-0.26-0.27-0.31-0.54l0.6 0.75q-0.08 0.7-0.32 1.41-0.24 0.7-0.76 1.29-0.52 0.6-1.41 0.95-0.9 0.36-2.26 0.36zm10.88-10.39q-0.31 0-0.52-0.21-0.22-0.21-0.22-0.5 0.01-0.3 0.22-0.52 0.21-0.22 0.52-0.22 0.29 0 0.5 0.22 0.21 0.22 0.21 0.52 0 0.29-0.21 0.5-0.21 0.21-0.5 0.21z"/><path class="s0" d="m179.66 106.95l-0.42-1.11q1.07-0.35 1.78-0.81 0.71-0.45 1.13-0.96 0.42-0.51 0.59-1.05 0.18-0.53 0.18-1.04 0-0.71-0.32-1.45-0.31-0.74-0.69-1.4l1.07-0.54q0.28 0.51 0.49 1.01 0.21 0.49 0.38 0.93 0.17 0.45 0.27 0.81 0.21 0.63 0.54 0.86 0.33 0.22 0.9 0.23 0.31 0 0.45 0.16 0.14 0.17 0.14 0.4 0 0.24-0.21 0.43-0.2 0.2-0.53 0.2-0.64 0-1.04-0.23-0.41-0.22-0.61-0.6-0.21-0.37-0.28-0.78l0.47 0.26q0 0.97-0.44 1.77-0.43 0.79-1.1 1.39-0.68 0.59-1.41 0.97-0.74 0.39-1.34 0.55z"/><path class="s0" d="m185.41 103.62l0.15-1.2q0.88 0 1.65-0.17 0.78-0.16 1.43-0.45 0.66-0.29 1.12-0.66 0.47-0.37 0.73-0.78 0.25-0.4 0.25-0.79 0-0.19-0.13-0.39-0.13-0.2-0.45-0.33-0.31-0.14-0.84-0.14-0.32 0-0.72 0.09-0.39 0.09-0.75 0.24-0.36 0.16-0.59 0.35 0.39 0.32 0.74 0.63 0.34 0.31 0.71 0.66 0.36 0.36 0.79 0.82 0.34 0.25 0.75 0.42 0.42 0.17 0.91 0.29 0.49 0.11 1.01 0.16 0.51 0.05 1.02 0.05 0.31 0 0.45 0.17 0.14 0.16 0.14 0.4 0 0.23-0.21 0.43-0.2 0.2-0.52 0.2-0.81 0-1.65-0.16-0.85-0.15-1.58-0.47-0.73-0.31-1.24-0.79-0.25-0.33-0.56-0.65-0.31-0.32-0.67-0.65-0.35-0.33-0.76-0.62-0.09-0.07-0.18-0.26-0.08-0.19-0.15-0.4-0.05-0.2-0.05-0.31 0-0.22 0.28-0.52 0.27-0.31 0.74-0.6 0.47-0.28 1.08-0.47 0.6-0.19 1.24-0.2 0.84 0 1.36 0.25 0.52 0.25 0.76 0.64 0.24 0.39 0.24 0.83 0 0.64-0.32 1.28-0.32 0.64-0.92 1.2-0.6 0.55-1.41 0.98-0.8 0.44-1.78 0.68-0.99 0.24-2.07 0.24z"/><path class="s0" d="m193.05 103.62l0.14-1.2q0.41 0 0.69-0.17 0.28-0.18 0.55-0.59 0.26-0.41 0.57-1.1 0.42-0.94 0.84-1.42 0.42-0.48 0.84-0.66 0.41-0.17 0.82-0.17 0.5 0 0.92 0.25 0.43 0.26 0.75 0.68 0.32 0.43 0.51 0.94 0.18 0.5 0.18 1 0 0.88-0.31 1.4-0.3 0.52-0.78 0.75-0.48 0.22-0.99 0.22-0.46 0-1.17-0.17-0.71-0.18-1.79-0.89l0.57-0.92q0.72 0.45 1.3 0.62 0.58 0.17 0.96 0.17 0.42 0 0.67-0.13 0.25-0.12 0.37-0.36 0.11-0.23 0.11-0.52 0-0.43-0.2-0.85-0.21-0.43-0.52-0.71-0.32-0.27-0.67-0.28-0.26 0-0.51 0.15-0.25 0.15-0.51 0.54-0.26 0.4-0.6 1.15-0.36 0.79-0.67 1.25-0.31 0.46-0.64 0.68-0.32 0.22-0.66 0.29-0.35 0.05-0.77 0.05z"/></g></g></g></svg>